<svg xmlns="http://www.w3.org/2000/svg" width="97.75" height="97.75" viewBox="0 0 97.75 97.75" xml:space="preserve">
  <path fill="white" d="M49.593 31.198c-2.057-3.833-6.009-8.729-12.848-8.911-6.945.023-12.804 6.01-12.804 13.093 0 4.984 3.376 8.59 6.798 10.967 2.841-2.722 10.377-9.659 18.854-15.149m5.973 25.786c-.642-6.104-2.073-14.323-3.129-19.865-6.405 4.245-12.294 9.391-15.574 12.415.194.09 18.703 7.45 18.703 7.45M30.87 69.529c2.686 6.402 10.462 9.518 17.004 6.8 5.287-2.197 7.188-7.724 7.843-12.177l-22.52-8.633c-2.409 3.406-4.492 8.376-2.327 14.01m38.802-36.898c-3.994-1.649-7.979-.585-11.238 1.184.881 4.492 3.075 16.136 3.768 24.188l.684.007c4.35-.285 11.031-1.867 14.002-8.546 2.628-6.428-.67-14.129-7.216-16.833"/>
  <path fill="white" d="M48.875 0C21.882 0 0 21.882 0 48.875S21.882 97.75 48.875 97.75 97.75 75.868 97.75 48.875 75.868 0 48.875 0m34.35 52.125-.033.076c-4.209 9.535-13.56 12.439-20.645 12.732-.877 6.133-3.667 14.266-12.035 17.742a19.8 19.8 0 0 1-7.608 1.52c-2.535 0-5.082-.484-7.521-1.455-4.997-1.989-8.86-5.76-10.877-10.613l-.03-.076c-2.967-7.656-.768-14.654 2.646-19.834-4.899-3.314-10.055-8.729-10.055-16.838 0-5.224 2.04-10.193 5.744-13.994 3.755-3.852 8.718-5.974 13.974-5.974l.083.002c9.342.225 15.332 6.3 18.618 12.192 4.647-2.454 10.547-3.914 16.81-1.328 4.828 1.994 8.644 5.776 10.742 10.651 2.126 4.942 2.192 10.339.187 15.197"/>
</svg>